<?xml version="1.0" encoding="utf-8"?>
<!-- Generator: Adobe Illustrator 16.0.0, SVG Export Plug-In . SVG Version: 6.00 Build 0)  -->
<!DOCTYPE svg PUBLIC "-//W3C//DTD SVG 1.1//EN" "http://www.w3.org/Graphics/SVG/1.1/DTD/svg11.dtd">
<svg version="1.1" id="Layer_1" xmlns="http://www.w3.org/2000/svg" xmlns:xlink="http://www.w3.org/1999/xlink" x="0px" y="0px"
	 width="400px" height="400px" viewBox="0 0 400 400" enable-background="new 0 0 400 400" xml:space="preserve">
<path fill="#e77817" d="M360.964,327.988l-3.403-5.676c-4.438-7.448-5.165-16.534-1.967-24.592l0.959-2.396
	c2.998-7.488,3.881-15.658,2.553-23.614l-1.583-9.513c-1.627-9.86-7.007-18.709-15.013-24.69l-25.563-19.171
	c0.409-0.34,0.851-0.632,1.232-1.013l15.695-15.697c3.134-3.117,4.89-7.356,4.878-11.775v-17.602
	c-0.01-9.191-7.459-16.64-16.649-16.65h-12.055c-4.419-0.011-8.657,1.745-11.772,4.878l-4.596,4.596
	c-1.044,1.036-2.453,1.62-3.925,1.626H257.8l-0.672-0.672c-3.115-3.133-7.355-4.89-11.773-4.878H244.4
	c-9.19,0.01-16.64,7.458-16.649,16.65v12.051c-0.012,4.418,1.744,8.658,4.878,11.775l15.695,15.697
	c0.237,0.236,0.52,0.408,0.769,0.63l-26.241,17.494c-2.243,1.519-4.321,3.268-6.202,5.219V183.35
	c-0.005-6.128-4.972-11.093-11.1-11.101h-11.1v-33.301c-0.007-6.127-4.973-11.093-11.101-11.1h-5.55V94.548
	c-0.007-6.128-4.973-11.093-11.101-11.101h-8.131l-8.52-12.781v-9.419c-0.007-6.128-4.973-11.093-11.101-11.101v-16.65h-11.1v16.65
	c-6.128,0.007-11.093,4.973-11.101,11.101v9.419l-8.52,12.781h-8.131c-6.128,0.007-11.093,4.973-11.101,11.101v33.301h-5.55
	c-6.128,0.007-11.093,4.973-11.101,11.1v33.301h-11.1c-6.128,0.007-11.094,4.973-11.101,11.101v116.553
	c-9.191,0.011-16.64,7.459-16.65,16.651v49.95h11.101v-49.95c0.003-3.065,2.485-5.548,5.55-5.552h38.851v55.502h11.101v-77.701
	c0.003-3.063,2.486-5.548,5.55-5.552h55.502c3.063,0.004,5.547,2.488,5.55,5.552v77.701H177.8v-55.502h38.85
	c3.065,0.004,5.548,2.486,5.552,5.552v49.95h127.651c9.192-0.011,16.641-7.459,16.651-16.651v-1.874
	C366.504,340.936,364.589,334.025,360.964,327.988z M240.477,193.778c-1.043-1.04-1.628-2.454-1.626-3.927V177.8
	c0.004-3.064,2.486-5.547,5.55-5.551h0.954c1.471,0.006,2.88,0.59,3.924,1.626l21.247,21.247c3.115,3.133,7.354,4.89,11.772,4.878
	h17.604v-11.101h-17.604c-1.471-0.005-2.88-0.589-3.925-1.626l-9.474-9.474h20.856c4.419,0.011,8.657-1.745,11.772-4.878
	l4.596-4.596c1.044-1.036,2.453-1.62,3.925-1.626h12.055c3.063,0.003,5.546,2.486,5.55,5.55v17.602
	c0.002,1.473-0.583,2.887-1.626,3.927l-15.697,15.696c-1.044,1.037-2.453,1.622-3.924,1.626h-46.309
	c-1.471-0.004-2.88-0.589-3.924-1.626L240.477,193.778z M183.35,138.948v33.301h-44.401v-33.301H183.35z M127.849,74.027v-12.78
	h11.1v12.78l6.282,9.42h-23.664L127.849,74.027z M100.098,94.548h66.602v33.301h-66.602V94.548z M83.447,138.948h44.401v33.301
	H83.447V138.948z M88.997,288.803v11.1h-27.75V183.35h66.602v88.802h-22.201C96.456,272.162,89.007,279.61,88.997,288.803z
	 M161.149,272.151h-22.201V183.35h66.602v116.553H177.8v-11.1C177.79,279.61,170.341,272.162,161.149,272.151z M355.404,349.853
	c-0.004,3.065-2.486,5.548-5.552,5.552H233.301v-38.851c-0.01-9.192-7.459-16.641-16.651-16.651v-32.13
	c-0.009-9.28,4.631-17.949,12.358-23.09l33.724-22.481h40.875l32.247,24.184c5.717,4.274,9.559,10.595,10.722,17.637l1.582,9.512
	c0.991,5.955,0.33,12.068-1.913,17.672l-0.96,2.398c-4.478,11.278-3.457,23.997,2.759,34.418l3.404,5.678
	c2.589,4.313,3.957,9.248,3.957,14.279V349.853z"/>
<path fill="#e77817" d="M317.388,251.774c0-2.149-1.74-3.894-3.892-3.894h-55.004c-2.149,0-3.892,1.744-3.892,3.894
	s1.742,3.892,3.892,3.892h15.738c9.38,0.014,17.455,6.624,19.319,15.816h-35.058c-2.149,0-3.892,1.741-3.892,3.893
	c0,2.149,1.742,3.892,3.892,3.892h35.058c-1.864,9.192-9.939,15.804-19.319,15.814h-15.738c-1.593,0.003-3.025,0.973-3.616,2.454
	c-0.587,1.48-0.215,3.171,0.943,4.266l39.339,37.174c1.561,1.478,4.026,1.408,5.502-0.155c1.477-1.563,1.408-4.025-0.155-5.502
	l-32.229-30.452h5.954c13.673-0.021,25.26-10.07,27.212-23.601h12.054c2.151,0,3.892-1.741,3.892-3.894
	c0-2.149-1.74-3.891-3.892-3.891h-12.054c-0.863-6.021-3.702-11.584-8.069-15.814h20.123
	C315.647,255.666,317.388,253.924,317.388,251.774z"/>
</svg>
