<?xml version="1.0" encoding="utf-8"?>
<!-- Generator: Adobe Illustrator 16.0.0, SVG Export Plug-In . SVG Version: 6.00 Build 0)  -->
<!DOCTYPE svg PUBLIC "-//W3C//DTD SVG 1.1//EN" "http://www.w3.org/Graphics/SVG/1.1/DTD/svg11.dtd">
<svg version="1.1" id="Layer_1" xmlns="http://www.w3.org/2000/svg" xmlns:xlink="http://www.w3.org/1999/xlink" x="0px" y="0px"
	 width="400px" height="400px" viewBox="0 0 400 400" enable-background="new 0 0 400 400" xml:space="preserve">
<g>
	<g>
		<path fill="#e77817" d="M199.141,215.061c0.388,0,0.776,0,1.242,0c0.156,0,0.311,0,0.466,0c0.232,0,0.543,0,0.776,0
			c22.753-0.389,41.157-8.387,54.747-23.685c29.898-33.703,24.928-91.479,24.385-96.992c-1.941-41.391-21.512-61.193-37.664-70.434
			C231.058,17.038,217.002,13.311,201.315,13h-0.544c-0.077,0-0.232,0-0.311,0h-0.466c-8.62,0-25.549,1.398-41.779,10.639
			c-16.308,9.241-36.188,29.043-38.129,70.745c-0.543,5.514-5.514,63.29,24.384,96.992
			C157.983,206.674,176.388,214.672,199.141,215.061z M140.821,96.325c0-0.233,0.078-0.466,0.078-0.621
			c2.563-55.679,42.09-61.659,59.019-61.659h0.311c0.155,0,0.389,0,0.622,0c20.967,0.466,56.611,9.008,59.018,61.659
			c0,0.233,0,0.466,0.078,0.621c0.078,0.543,5.514,53.35-19.181,81.15c-9.784,11.027-22.831,16.463-39.993,16.618
			c-0.154,0-0.232,0-0.388,0l0,0c-0.155,0-0.233,0-0.388,0c-17.084-0.155-30.208-5.591-39.915-16.618
			C135.463,149.83,140.744,96.791,140.821,96.325z"/>
		<path fill="#e77817" d="M359.966,310.888c0-0.077,0-0.155,0-0.233c0-0.621-0.077-1.242-0.077-1.941
			c-0.466-15.375-1.476-51.33-35.178-62.823c-0.233-0.077-0.544-0.155-0.777-0.233c-35.022-8.93-64.144-29.12-64.454-29.354
			c-4.737-3.339-11.26-2.174-14.599,2.563c-3.34,4.737-2.175,11.261,2.563,14.6c1.32,0.932,32.227,22.442,70.899,32.383
			c18.094,6.445,20.112,25.781,20.656,43.486c0,0.699,0,1.32,0.078,1.941c0.077,6.99-0.389,17.783-1.631,23.996
			c-12.58,7.145-61.892,31.839-136.907,31.839c-74.705,0-124.327-24.772-136.985-31.917c-1.242-6.212-1.786-17.006-1.63-23.995
			c0-0.621,0.078-1.242,0.078-1.941c0.543-17.706,2.563-37.042,20.656-43.487c38.673-9.939,69.58-31.528,70.9-32.383
			c4.737-3.339,5.902-9.861,2.563-14.599s-9.862-5.901-14.599-2.563c-0.311,0.233-29.276,20.423-64.455,29.354
			c-0.311,0.077-0.543,0.155-0.776,0.233c-33.703,11.57-34.712,47.525-35.178,62.823c0,0.698,0,1.32-0.078,1.941
			c0,0.077,0,0.155,0,0.233c-0.078,4.037-0.155,24.771,3.96,35.178c0.777,2.02,2.174,3.728,4.038,4.893
			C51.362,352.434,107.197,388,200.617,388c93.42,0,149.254-35.645,151.584-37.119c1.785-1.165,3.261-2.873,4.038-4.893
			C360.121,335.66,360.044,314.926,359.966,310.888z"/>
	</g>
</g>
</svg>
