<?xml version="1.0" encoding="utf-8"?>
<!-- Generator: Adobe Illustrator 16.0.0, SVG Export Plug-In . SVG Version: 6.00 Build 0)  -->
<!DOCTYPE svg PUBLIC "-//W3C//DTD SVG 1.1//EN" "http://www.w3.org/Graphics/SVG/1.1/DTD/svg11.dtd">
<svg version="1.1" id="Layer_1" xmlns="http://www.w3.org/2000/svg" xmlns:xlink="http://www.w3.org/1999/xlink" x="0px" y="0px"
	 width="400px" height="400px" viewBox="0 0 400 400" enable-background="new 0 0 400 400" xml:space="preserve">
<path fill="#e77817" d="M247.899,131.369c-6.408-40.058-41.504-70.067-82.204-70.067h-58.378V46.448c0-3.341-2.012-6.355-5.1-7.634
	c-3.089-1.276-6.641-0.573-9.004,1.792L37.816,96.018c-3.227,3.226-3.227,8.456,0,11.682l55.399,55.414
	c2.361,2.364,5.915,3.068,9.004,1.792c3.088-1.279,5.1-4.292,5.1-7.634v-14.858h58.378c1.102,0,2.182,1.083,2.182,2.189
	l-0.002,208.951c0,4.564,3.698,8.262,8.262,8.262h64.578c4.563,0,8.261-3.697,8.261-8.262V214.629c0-1.104,1.082-2.188,2.184-2.188
	h41.521v14.273c0,3.342,2.013,6.354,5.102,7.634c3.087,1.276,6.64,0.57,9.004-1.793l55.398-55.418
	c3.225-3.227,3.224-8.457-0.002-11.683l-55.397-55.411c-2.363-2.364-5.916-3.07-9.004-1.792c-3.088,1.279-5.101,4.292-5.101,7.634
	v15.484H247.899z M165.696,125.889h-66.64c-4.563,0-8.261,3.698-8.261,8.262v3.173L55.34,101.859l35.456-35.462v3.167
	c0,4.564,3.698,8.262,8.261,8.262h66.64c32.512,0,60.56,23.921,65.837,55.862c-19.125,4.641-35.697,15.883-47.131,31.191v-20.276
	C184.402,134.458,175.835,125.889,165.696,125.889z M309.205,206.764v-2.584c0-4.564-3.697-8.262-8.262-8.262H251.16
	c-10.14,0-18.706,8.569-18.706,18.711v130.662H184.4V214.629c0-36.822,29.949-66.777,66.759-66.777h49.783
	c4.564,0,8.262-3.698,8.262-8.262v-3.756l35.454,35.462L309.205,206.764z"/>
</svg>
