<?xml version="1.0" encoding="utf-8"?>
<!-- Generator: Adobe Illustrator 16.0.0, SVG Export Plug-In . SVG Version: 6.00 Build 0)  -->
<!DOCTYPE svg PUBLIC "-//W3C//DTD SVG 1.1//EN" "http://www.w3.org/Graphics/SVG/1.1/DTD/svg11.dtd">
<svg version="1.1" id="Layer_1" xmlns="http://www.w3.org/2000/svg" xmlns:xlink="http://www.w3.org/1999/xlink" x="0px" y="0px"
	 width="400px" height="400px" viewBox="0 0 400 400" enable-background="new 0 0 400 400" xml:space="preserve">
<g>
	<path fill="#e77817" d="M281.281,174.664c0-7.303-5.92-13.222-13.222-13.222H131.867c-7.303,0-13.223,5.919-13.223,13.222
		s5.92,13.223,13.223,13.223H268.06C275.361,187.887,281.281,181.967,281.281,174.664z"/>
	<path fill="#e77817" d="M131.867,214.332c-7.303,0-13.223,5.92-13.223,13.223s5.92,13.223,13.223,13.223h82.715
		c7.302,0,13.222-5.92,13.222-13.223s-5.92-13.223-13.222-13.223H131.867z"/>
	<path fill="#e77817" d="M162.94,341.268h-44.223c-14.581,0-26.445-11.863-26.445-26.445V82.107
		c0-14.582,11.864-26.444,26.445-26.444h162.563c14.582,0,26.445,11.863,26.445,26.444v81.318c0,7.303,5.919,13.223,13.222,13.223
		s13.224-5.919,13.224-13.223V82.107c0-29.164-23.728-52.89-52.891-52.89H118.718c-29.163,0-52.89,23.726-52.89,52.89v232.715
		c0,29.162,23.727,52.891,52.89,52.891h44.223c7.303,0,13.223-5.922,13.223-13.225S170.243,341.268,162.94,341.268z"/>
	<path fill="#e77817" d="M268.06,108.552H131.867c-7.303,0-13.223,5.919-13.223,13.222s5.92,13.223,13.223,13.223H268.06
		c7.302,0,13.222-5.92,13.222-13.223S275.361,108.552,268.06,108.552z"/>
	<g>
		<path fill="#e77817" d="M311.68,353.898l-2.186,8.936c-6.558,2.59-11.796,4.559-15.696,5.914
			c-3.906,1.359-8.443,2.035-13.612,2.035c-7.939,0-14.115-1.945-18.52-5.809c-4.403-3.879-6.606-8.793-6.606-14.754
			c0-2.309,0.16-4.684,0.491-7.102c0.336-2.422,0.869-5.15,1.597-8.197l8.197-29.008c0.729-2.779,1.349-5.41,1.845-7.9
			c0.504-2.473,0.747-4.748,0.747-6.797c0-3.703-0.769-6.295-2.294-7.752c-1.527-1.453-4.441-2.189-8.767-2.189
			c-2.12,0-4.296,0.338-6.517,0.994c-2.229,0.658-4.135,1.297-5.735,1.889l2.192-8.943c5.368-2.186,10.5-4.059,15.409-5.613
			c4.909-1.557,9.548-2.336,13.936-2.336c7.884,0,13.968,1.906,18.24,5.717c4.272,3.813,6.408,8.758,6.408,14.85
			c0,1.262-0.141,3.482-0.442,6.656c-0.294,3.182-0.842,6.096-1.641,8.75l-8.162,28.891c-0.668,2.32-1.27,4.973-1.793,7.959
			c-0.539,2.965-0.797,5.23-0.797,6.75c0,3.836,0.855,6.457,2.57,7.85c1.727,1.393,4.702,2.084,8.928,2.084
			c1.985,0,4.242-0.352,6.751-1.043C308.725,355.037,310.549,354.43,311.68,353.898z M313.75,232.602
			c0,5.033-1.896,9.334-5.71,12.869c-3.802,3.547-8.384,5.322-13.744,5.322c-5.378,0-9.972-1.775-13.817-5.322
			c-3.84-3.537-5.764-7.836-5.764-12.869c0-5.023,1.924-9.33,5.764-12.91c3.839-3.572,8.44-5.359,13.817-5.359
			c5.358,0,9.942,1.791,13.744,5.359C311.855,223.271,313.75,227.58,313.75,232.602z"/>
	</g>
</g>
</svg>
