<?xml version="1.0" encoding="utf-8"?>
<!-- Generator: Adobe Illustrator 16.0.0, SVG Export Plug-In . SVG Version: 6.00 Build 0)  -->
<!DOCTYPE svg PUBLIC "-//W3C//DTD SVG 1.1//EN" "http://www.w3.org/Graphics/SVG/1.1/DTD/svg11.dtd">
<svg version="1.1" id="Layer_1" xmlns="http://www.w3.org/2000/svg" xmlns:xlink="http://www.w3.org/1999/xlink" x="0px" y="0px"
	 width="400px" height="400px" viewBox="0 0 400 400" enable-background="new 0 0 400 400" xml:space="preserve">
<g>
	<path fill="#555555" d="M361.168,271.802c-6.066-14.188-22.214-20.487-36.153-15.837l-58.017,19.337
		c-0.167-2.393-0.636-4.777-1.414-7.112c-2.428-7.282-7.548-13.186-14.415-16.619l-79.445-39.722
		c-10.745-5.373-23.029-6.517-34.581-3.216l-23.703,6.773c-2.121-13.771-14.048-24.347-28.403-24.347H46.08
		c-5.292,0-9.58,4.289-9.58,9.58v134.118c0,5.289,4.289,9.58,9.58,9.58h58.117c5.292,0,9.58-4.291,9.58-9.58v-5.137l49.529,24.764
		c22.171,11.077,48.597,12.377,72.495,2.123l110.271-46.979C360.661,303.281,367.424,286.396,361.168,271.802z M94.617,325.178
		H55.66V210.22h29.379c5.281,0,9.578,4.296,9.578,9.58V325.178z M338.547,291.91l-110.278,46.981
		c-18.419,7.901-38.941,7.075-56.398-1.646l-58.094-29.044v-72.966l28.63-8.178c6.931-1.984,14.3-1.298,20.75,1.928l79.445,39.722
		c4.725,2.363,6.648,8.13,4.285,12.857c-2.409,4.816-8.207,6.608-12.854,4.283l-47.399-23.699
		c-12.092-6.047-26.969-2.746-35.369,7.847c-3.288,4.144-2.595,10.171,1.552,13.457c4.144,3.288,10.171,2.595,13.459-1.552
		c2.799-3.529,7.756-4.63,11.788-2.615l47.399,23.699c10.423,5.212,23.209,3.662,32.073-4.331l73.543-24.515
		c4.782-1.596,10.458,0.482,12.474,5.202C345.667,284.271,343.319,289.863,338.547,291.91z"/>
	<path fill="#555555" d="M247.878,104.841c0,5.289-4.288,9.58-9.58,9.58c-5.291,0-9.58-4.291-9.58-9.58
		c0-5.292,4.289-9.58,9.58-9.58C243.59,95.261,247.878,99.55,247.878,104.841z"/>
	<path fill="#555555" d="M286.195,143.159c0,5.292-4.289,9.58-9.577,9.58c-5.291,0-9.58-4.289-9.58-9.58
		c0-5.289,4.289-9.58,9.58-9.58C281.906,133.579,286.195,137.87,286.195,143.159z"/>
	<path fill="#555555" d="M283.409,98.065c-3.74-3.74-9.807-3.74-13.547,0l-38.32,38.32c-3.742,3.742-3.742,9.807,0,13.547
		c3.74,3.742,9.807,3.742,13.547,0l38.32-38.318C287.15,107.873,287.15,101.808,283.409,98.065z"/>
	<path fill="#555555" d="M155.692,150.641l95.798,76.638c1.749,1.399,3.866,2.101,5.985,2.101c2.108,0,4.216-0.694,5.96-2.08
		l96.437-76.639c3.191-2.538,4.429-6.811,3.086-10.658c-1.342-3.847-4.972-6.424-9.046-6.424h-29.376V46.083
		c0-5.292-4.291-9.58-9.58-9.58H199.998c-5.292,0-9.58,4.289-9.58,9.58v87.496h-28.74c-4.069,0-7.694,2.569-9.039,6.409
		C151.291,143.828,152.516,148.099,155.692,150.641z M199.998,152.739c5.289,0,9.58-4.289,9.58-9.58V55.664h95.799v87.496
		c0,5.292,4.288,9.58,9.58,9.58h11.506l-68.966,54.806l-68.508-54.806H199.998z"/>
</g>
</svg>
