<?xml version="1.0" encoding="utf-8"?>
<!-- Generator: Adobe Illustrator 16.0.0, SVG Export Plug-In . SVG Version: 6.00 Build 0)  -->
<!DOCTYPE svg PUBLIC "-//W3C//DTD SVG 1.1//EN" "http://www.w3.org/Graphics/SVG/1.1/DTD/svg11.dtd">
<svg version="1.1" id="Layer_1" xmlns="http://www.w3.org/2000/svg" xmlns:xlink="http://www.w3.org/1999/xlink" x="0px" y="0px"
	 width="400px" height="400px" viewBox="0 0 400 400" enable-background="new 0 0 400 400" xml:space="preserve">
<path fill="#555655" d="M267.412,327.264l-4.535,18.539c-13.605,5.369-24.474,9.457-32.566,12.268
	c-8.102,2.818-17.515,4.221-28.241,4.221c-16.471,0-29.282-4.035-38.419-12.049c-9.138-8.047-13.708-18.244-13.708-30.611
	c0-4.789,0.332-9.715,1.021-14.732c0.695-5.023,1.801-10.682,3.313-17.008l17.003-60.182c1.513-5.762,2.799-11.223,3.829-16.387
	c1.044-5.131,1.547-9.852,1.547-14.103c0-7.686-1.591-13.062-4.759-16.083c-3.168-3.015-9.214-4.545-18.188-4.545
	c-4.396,0-8.913,0.704-13.519,2.065c-4.625,1.367-8.579,2.688-11.897,3.916l4.547-18.554c11.139-4.536,21.785-8.419,31.97-11.643
	c10.185-3.231,19.808-4.849,28.91-4.849c16.358,0,28.98,3.953,37.844,11.86c8.863,7.912,13.294,18.169,13.294,30.809
	c0,2.615-0.29,7.224-0.915,13.809c-0.611,6.602-1.748,12.65-3.407,18.15l-16.931,59.939c-1.388,4.816-2.637,10.32-3.721,16.514
	c-1.12,6.152-1.655,10.854-1.655,14.006c0,7.961,1.775,13.395,5.332,16.283c3.585,2.889,9.757,4.324,18.525,4.324
	c4.116,0,8.799-0.73,14.004-2.164C261.279,329.625,265.065,328.365,267.412,327.264z M271.706,75.613
	c0,10.443-3.936,19.362-11.846,26.696c-7.89,7.36-17.396,11.043-28.518,11.043c-11.156,0-20.686-3.683-28.665-11.043
	c-7.965-7.337-11.956-16.253-11.956-26.696c0-10.423,3.991-19.357,11.956-26.783c7.964-7.415,17.512-11.121,28.665-11.121
	c11.119,0,20.628,3.715,28.518,11.121C267.776,56.256,271.706,65.193,271.706,75.613z"/>
</svg>
