<svg version="1.1" id="Layer_1" xmlns="http://www.w3.org/2000/svg" xmlns:xlink="http://www.w3.org/1999/xlink" x="0px" y="0px"
	 width="567.36px" height="112.454px" viewBox="0 0 567.36 112.454" enable-background="new 0 0 567.36 112.454"
	 xml:space="preserve">
<g>
	<polyline fill-rule="evenodd" clip-rule="evenodd" fill="#193E6C" points="103.167,111.406 122.31,111.406 137.321,55.386 
		118.18,55.386 103.167,111.406 	"/>
	<polyline fill-rule="evenodd" clip-rule="evenodd" fill="#193E6C" points="201.496,111.406 220.639,111.406 235.649,55.386 
		216.51,55.386 201.496,111.406 	"/>
	<polyline fill-rule="evenodd" clip-rule="evenodd" fill="#193E6C" points="299.826,111.406 318.967,111.406 333.978,55.386 
		314.838,55.386 299.826,111.406 	"/>
	<path fill-rule="evenodd" clip-rule="evenodd" fill="#193E6C" d="M183.682,74.581h19.156c2.542-12.595-5.599-19.08-24.375-19.08
		c-21.72,0-36.484,10.635-41.436,29.111c-4.485,16.74,4.396,26.934,24.833,26.934c20.662,0,32.868-6.422,38.085-20.825h-19.232
		c-2.676,6.335-7.713,9.652-14.5,9.652c-9.275,0-12.905-5.885-10.057-16.517c2.973-11.083,9.963-17.194,19.315-17.194
		C181.354,66.662,184.115,69.303,183.682,74.581"/>
	<path fill-rule="evenodd" clip-rule="evenodd" fill="#193E6C" d="M282.012,74.581h19.154c2.542-12.595-5.598-19.08-24.374-19.08
		c-21.72,0-36.485,10.635-41.438,29.111c-4.485,16.74,4.398,26.934,24.835,26.934c20.662,0,32.868-6.422,38.083-20.825h-19.23
		c-2.678,6.335-7.715,9.652-14.501,9.652c-9.275,0-12.903-5.885-10.055-16.517c2.972-11.083,9.963-17.194,19.314-17.194
		C279.682,66.662,282.445,69.303,282.012,74.581"/>
	<path fill-rule="evenodd" clip-rule="evenodd" fill="#F58220" d="M29.219,24.324C54.861-1.091,85.863-7.656,98.229,9.709
		c12.365,17.362,1.539,52.254-24.104,77.669c-25.644,25.412-56.645,31.98-69.01,14.615C-7.25,84.627,3.577,49.735,29.219,24.324"/>
	<path fill-rule="evenodd" clip-rule="evenodd" fill="#BF2026" d="M46.192,10.773c-2.766,2.072-5.707,4.493-8.473,7.256
		C15.251,40.155,5.916,70.58,16.979,85.792C28.387,101,56.043,95.471,78.86,72.997c12.273-11.923,20.57-25.925,24.027-38.89
		c1.038-9.506-0.344-17.976-4.669-24.373C88.367-3.749,67.278-2.712,46.192,10.773"/>
	<path fill-rule="evenodd" clip-rule="evenodd" fill="#FFFFFF" d="M58.895,99.915c-12.002,9.018-24.407,13.482-36.504,11.615
		c5.073,0.262,9.179-5.373,12.541-12.94c3.412-7.754,5.467-14.948,7.102-21.675c2.384-10.65,2.569-18.265,1.354-19.898
		c-2.053-2.71-6.725-2.01-12.004,1.027c-2.523,1.399-5.885,0.467-1.915-4.344c4.017-4.86,19.993-16.538,25.737-18.358
		c6.307-1.823,13.5,0.654,11.072,7.567C64.547,47.953,42.451,105.932,58.895,99.915 M76.973,9.977
		c2.993,2.987,1.17,9.527-3.922,14.667c-5.138,5.094-11.817,6.911-14.716,3.97c-3.082-2.943-1.258-9.577,3.877-14.761
		C67.399,8.669,74.078,7.08,76.973,9.977z"/>
	<path fill-rule="evenodd" clip-rule="evenodd" fill="#193E6C" d="M362.731,102.556l4.378-16.338h12.527
		c9.648,0,13.933,1.714,12.162,8.326c-1.627,6.067-6.351,8.012-15.065,8.012H362.731 M373.045,64.045h11.908
		c8.945,0,13.093,1.086,11.59,6.689s-6.31,7.001-15.569,7.001H369.38L373.045,64.045z M348.272,111.505h28.71
		c8.171,0,14.251-0.623,20.081-4.668c3.899-2.647,6.771-6.689,7.96-11.126c2.065-7.704-1.463-12.839-10.23-14.086
		c8.276-1.553,13.491-5.909,15.262-12.524c1.378-5.137,0.255-8.793-3.436-11.282c-3.04-2.022-8.012-2.336-14.779-2.336h-28.558
		L348.272,111.505z"/>
	<path fill-rule="evenodd" clip-rule="evenodd" fill="#193E6C" d="M441.063,93.452l-0.187,0.704
		c-1.938,7.233-7.775,11.593-14.932,11.593c-5.215,0-7.396-2.022-6.395-5.756c1.375-5.138,5.875-6.541,14.201-6.541H441.063
		 M436.614,111.505h11.519c0.317-2.642,0.934-5.523,1.789-8.713l4.191-15.642c2.772-10.349-2.346-15.638-15.343-15.638
		c-12.523,0-20.694,4.355-23.199,11.671h11.049c1.447-3.656,4.63-5.367,9.92-5.367c5.911,0,8.006,2.645,6.487,8.323l-0.19,0.703
		h-6.07c-17.119,0-26.354,3.108-29.002,12.994c-2.045,7.623,2.766,12.616,12.959,12.616c6.612,0,12.412-2.193,17.021-6.315
		L436.614,111.505z"/>
	<path fill-rule="evenodd" clip-rule="evenodd" fill="#193E6C" d="M458.046,111.505h11.593l5.355-19.995
		c1.941-7.237,8.588-12.297,15.511-12.297c6.771,0,9.132,3.971,7.004,11.908l-5.461,20.384h11.357l6.425-23.965
		c2.707-10.112-2.421-15.95-13.703-15.95c-7.314,0-13.271,2.492-18.268,7.779l1.388-6.923H467.81
		c-1.18,6.147-1.97,9.959-2.365,11.438L458.046,111.505"/>
	<polyline fill-rule="evenodd" clip-rule="evenodd" fill="#193E6C" points="513.63,111.505 524.916,111.505 530.566,90.421 
		545.766,111.505 561.251,111.505 544.125,89.173 567.36,72.447 552.81,72.447 531.169,88.166 539.925,55.482 528.643,55.482 
		513.63,111.505 	"/>
</g>
</svg>
