<?xml version="1.0" encoding="utf-8"?>
<!-- Generator: Adobe Illustrator 16.0.0, SVG Export Plug-In . SVG Version: 6.00 Build 0)  -->
<!DOCTYPE svg PUBLIC "-//W3C//DTD SVG 1.1//EN" "http://www.w3.org/Graphics/SVG/1.1/DTD/svg11.dtd">
<svg version="1.1" id="Layer_1" xmlns="http://www.w3.org/2000/svg" xmlns:xlink="http://www.w3.org/1999/xlink" x="0px" y="0px"
	 width="400px" height="400px" viewBox="0 0 400 400" enable-background="new 0 0 400 400" xml:space="preserve">
<g>
	<g>
		<g>
			<path fill="#555555" d="M180.188,52.857v59.438H358.5V52.857H180.188z M338.688,92.482H200V72.67h138.688V92.482z"/>
			<path fill="#555555" d="M180.188,330.232H358.5v-59.438H180.188V330.232z M200,290.607h138.688v19.813H200V290.607z"/>
			<path fill="#555555" d="M180.188,221.264H358.5v-59.437H180.188V221.264z M200,181.639h138.688v19.812H200V181.639z"/>
			<rect x="140.563" y="72.67" fill="#555555" width="19.813" height="19.813"/>
			<path fill="#555555" d="M110.844,92.482h9.906V72.67h-9.906c-3.845,0.013-7.682,0.344-11.471,0.991l3.229,19.535
				C105.325,92.736,108.082,92.498,110.844,92.482z"/>
			<path fill="#555555" d="M103.84,267.893l22.715,22.715h-15.711c-27.342-0.033-49.498-22.189-49.531-49.531v-99.063
				c-0.01-18.112,9.868-34.784,25.756-43.479l-9.51-17.385c-22.243,12.17-36.07,35.51-36.059,60.864v99.063
				c0.043,38.279,31.064,69.301,69.344,69.344h15.711l-22.715,22.716l14.008,14.007l46.628-46.629l-46.628-46.628L103.84,267.893z"
				/>
		</g>
	</g>
</g>
</svg>
