<?xml version="1.0" encoding="utf-8"?>
<!-- Generator: Adobe Illustrator 16.0.0, SVG Export Plug-In . SVG Version: 6.00 Build 0)  -->
<!DOCTYPE svg PUBLIC "-//W3C//DTD SVG 1.1//EN" "http://www.w3.org/Graphics/SVG/1.1/DTD/svg11.dtd">
<svg version="1.1" id="Layer_1" xmlns="http://www.w3.org/2000/svg" xmlns:xlink="http://www.w3.org/1999/xlink" x="0px" y="0px"
	 width="400px" height="400px" viewBox="0 0 400 400" enable-background="new 0 0 400 400" xml:space="preserve">
<g>
	<g>
		<g>
			<path fill="#e77817" d="M205.686,30.363C204.38,28.862,202.489,28,200.5,28c-1.989,0-3.88,0.862-5.186,2.362
				C190.24,36.197,71.037,174.06,71.037,243.537C71.037,314.923,129.114,373,200.5,373c71.387,0,129.463-58.077,129.463-129.462
				C329.963,174.061,210.76,36.197,205.686,30.363z M200.5,359.255c-63.807,0-115.718-51.911-115.718-115.717
				c0-26.248,20.741-69.708,59.982-125.681c22.743-32.441,45.73-60.468,55.735-72.375c9.99,11.89,32.933,39.859,55.669,72.279
				c39.284,56.02,60.049,99.511,60.049,125.776C316.218,307.344,264.307,359.255,200.5,359.255z"/>
			<path fill="#e77817" d="M224.808,160.64c1.758,0,3.518-0.672,4.859-2.013l8.247-8.247c2.685-2.684,2.684-7.036,0-9.72
				c-2.684-2.683-7.036-2.683-9.719,0l-8.248,8.247c-2.685,2.684-2.684,7.036,0,9.72C221.29,159.968,223.049,160.64,224.808,160.64z
				"/>
			<path fill="#e77817" d="M240.254,214.725C240.247,214.708,240.247,214.71,240.254,214.725L240.254,214.725z"/>
			<path fill="#e77817" d="M240.275,214.778c-0.01-0.024-0.016-0.042-0.021-0.053C240.258,214.734,240.266,214.754,240.275,214.778z
				"/>
			<path fill="#e77817" d="M240.851,216.167c-0.026-0.064-0.113-0.275-0.296-0.715c-0.153-0.372-0.239-0.578-0.279-0.674
				c0.052,0.122,0.166,0.396,0.278,0.672c-1.063-2.566-3.569-4.241-6.348-4.241h-57.122l36.783-36.782
				c2.684-2.684,2.684-7.035,0-9.72c-2.684-2.683-7.035-2.683-9.72,0l-48.516,48.515c-1.965,1.966-2.553,4.922-1.489,7.49
				c1.063,2.567,3.569,4.242,6.35,4.242h57.123l-59.464,59.464v-17.961c0-3.795-3.077-6.872-6.873-6.872
				c-3.795,0-6.872,3.077-6.872,6.872v34.553c0,3.734,3.141,6.872,6.872,6.872h34.554c3.795,0,6.872-3.077,6.872-6.872
				s-3.077-6.873-6.872-6.873h-17.963l71.195-71.195c1.967-1.966,2.555-4.92,1.491-7.488
				C240.686,215.767,240.814,216.079,240.851,216.167z"/>
			<path fill="#e77817" d="M240.851,216.167C240.864,216.199,240.863,216.197,240.851,216.167L240.851,216.167z"/>
		</g>
	</g>
</g>
</svg>
