<?xml version="1.0" encoding="utf-8"?>
<!-- Generator: Adobe Illustrator 16.0.0, SVG Export Plug-In . SVG Version: 6.00 Build 0)  -->
<!DOCTYPE svg PUBLIC "-//W3C//DTD SVG 1.1//EN" "http://www.w3.org/Graphics/SVG/1.1/DTD/svg11.dtd">
<svg version="1.1" id="Layer_1" xmlns="http://www.w3.org/2000/svg" xmlns:xlink="http://www.w3.org/1999/xlink" x="0px" y="0px"
	 width="400px" height="400px" viewBox="0 0 400 400" enable-background="new 0 0 400 400" xml:space="preserve">
<g>
	<path fill="#555555" d="M202.695,47.428h-7.832c-4.185,0-7.577-3.393-7.577-7.577v-0.255c0-9.718-7.879-17.596-17.597-17.596
		h-0.407c-9.718,0-17.596,7.878-17.596,17.596v0.255c0,4.185-3.393,7.578-7.577,7.578h-7.832c-8.342,0-15.104,6.763-15.104,15.105
		v0.305c0,8.342,6.762,15.104,15.104,15.104h66.42c8.342,0,15.104-6.763,15.104-15.104v-0.306
		C217.801,54.191,211.038,47.428,202.695,47.428z M169.486,47.428c-4.213,0-7.628-3.416-7.628-7.628s3.415-7.629,7.628-7.629
		c4.213,0,7.628,3.416,7.628,7.629C177.114,44.013,173.699,47.428,169.486,47.428z M203.449,342.399H75.4
		c-11.235,0-20.342-9.107-20.342-20.342V77.942c0-11.235,9.107-20.342,15.257-20.342h41.216c-0.344,1.689-0.529,3.44-0.529,5.24
		c0,13.937,11.338,25.275,25.277,25.275h66.417c13.939,0,25.276-11.338,25.276-25.583c0-1.689-0.181-3.335-0.497-4.932h31.012
		c16.321,0,25.429,9.107,25.429,20.342v152.829c-1.69-0.105-3.369-0.258-5.086-0.258c-7.034,0-13.827,0.992-20.343,2.679v-119.65
		h-178v203.429h117.229C198.272,325.911,200.225,334.467,203.449,342.399z M278.829,245.771c-36.514,0-66.113,29.602-66.113,66.114
		c0,36.514,29.599,66.114,66.113,66.114s66.113-29.601,66.113-66.114C344.942,275.373,315.343,245.771,278.829,245.771z
		 M322.03,298.302l-40.686,45.771c-2.005,2.256-4.796,3.412-7.606,3.412c-2.232,0-4.478-0.73-6.351-2.229l-25.429-20.343
		c-4.385-3.507-5.098-9.909-1.586-14.294c3.506-4.391,9.91-5.102,14.296-1.589l17.886,14.309l34.271-38.555
		c3.728-4.197,10.16-4.579,14.359-0.845C325.386,287.674,325.763,294.101,322.03,298.302z M233.058,200h-81.371
		c-2.809,0-5.085-2.277-5.085-5.086v-5.086c0-2.809,2.276-5.085,5.085-5.085h81.371c2.809,0,5.087,2.277,5.087,5.085v5.086
		C238.143,197.723,235.866,200,233.058,200z M233.058,154.229h-81.371c-2.809,0-5.085-2.278-5.085-5.086v-5.085
		c0-2.809,2.276-5.085,5.085-5.085h81.371c2.809,0,5.087,2.277,5.087,5.085v5.085C238.143,151.952,235.866,154.229,233.058,154.229z
		 M207.629,240.686h-55.942c-2.809,0-5.085-2.277-5.085-5.085v-5.087c0-2.809,2.276-5.086,5.085-5.086h55.942
		c2.81,0,5.086,2.277,5.086,5.086v5.087C212.714,238.408,210.438,240.686,207.629,240.686z M197.458,286.457h-45.771
		c-2.809,0-5.086-2.277-5.086-5.086v-5.086c0-2.809,2.277-5.085,5.086-5.085h45.771c2.809,0,5.085,2.276,5.085,5.085v5.086
		C202.543,284.18,200.267,286.457,197.458,286.457z M136.863,135.42l-18.73,21.071c-0.923,1.039-2.208,1.571-3.502,1.571
		c-1.028,0-2.061-0.336-2.923-1.027l-11.707-9.365c-2.019-1.614-2.347-4.561-0.731-6.58c1.614-2.021,4.563-2.348,6.582-0.732
		l8.234,6.587l15.778-17.75c1.716-1.932,4.676-2.108,6.609-0.389C138.408,130.527,138.582,133.486,136.863,135.42z M136.863,180.669
		l-18.73,21.07c-0.923,1.038-2.208,1.57-3.502,1.57c-1.028,0-2.061-0.335-2.923-1.026l-11.707-9.365
		c-2.019-1.614-2.347-4.562-0.731-6.581c1.614-2.021,4.563-2.348,6.582-0.731l8.234,6.587l15.778-17.75
		c1.716-1.931,4.676-2.107,6.609-0.387C138.408,175.775,138.582,178.734,136.863,180.669z M136.863,223.94l-18.73,21.071
		c-0.923,1.038-2.208,1.571-3.502,1.571c-1.028,0-2.061-0.336-2.923-1.027l-11.707-9.365c-2.019-1.613-2.347-4.562-0.731-6.581
		c1.614-2.021,4.563-2.348,6.582-0.73l8.234,6.586l15.778-17.749c1.716-1.933,4.676-2.108,6.609-0.389
		C138.408,219.048,138.582,222.006,136.863,223.94z M136.863,267.518l-18.73,21.071c-0.923,1.039-2.208,1.571-3.502,1.571
		c-1.028,0-2.061-0.336-2.923-1.027l-11.707-9.365c-2.019-1.613-2.347-4.561-0.731-6.58c1.614-2.021,4.563-2.348,6.582-0.731
		l8.234,6.586l15.778-17.749c1.716-1.932,4.676-2.107,6.609-0.389C138.408,262.625,138.582,265.584,136.863,267.518z"/>
</g>
</svg>
